<?xml version="1.0" encoding="iso-8859-1"?>
<!-- Generator: Adobe Illustrator 19.0.0, SVG Export Plug-In . SVG Version: 6.00 Build 0)  -->
<svg version="1.1" id="Layer_1" xmlns="http://www.w3.org/2000/svg" xmlns:xlink="http://www.w3.org/1999/xlink" x="0px" y="0px"
	 viewBox="0 0 379.298 379.298" style="enable-background:new 0 0 379.298 379.298;" xml:space="preserve">
<g id="XMLID_4_">
	<g id="XMLID_54_">
		<path id="XMLID_58_" style="fill:#1DD2A5;" d="M0,94.824L0,94.824c0,104.741,84.909,189.65,189.65,189.65
			c104.739,0,189.648-84.909,189.648-189.65l0,0C379.298,94.824,0,94.824,0,94.824z"/>
		<path id="XMLID_55_" style="fill:#2CB79A;" d="M189.649,94.824v189.65c0,0,0,0,0.001,0c104.739,0,189.648-84.909,189.648-189.65
			C379.298,94.824,189.649,94.824,189.649,94.824z"/>
	</g>
	<g id="XMLID_51_">
		<path id="XMLID_53_" style="fill:#FF628B;" d="M36.603,94.825L36.603,94.825c0,84.524,68.521,153.045,153.045,153.045
			s153.046-68.522,153.046-153.046l0,0L36.603,94.825z"/>
		<path id="XMLID_52_" style="fill:#CF476A;" d="M189.649,94.824V247.87c84.524,0,153.046-68.522,153.046-153.046L189.649,94.824z"
			/>
	</g>
	<g id="XMLID_5_">
		<path id="XMLID_50_" style="fill:#FCE98E;" d="M84.142,144.912c0-10.431,12.63-29.215,16.238-29.215
			c4.209,0,16.237,18.783,16.237,29.216c0,10.431-7.27,18.887-16.237,18.887S84.142,155.345,84.142,144.912z"/>
		<path id="XMLID_47_" style="fill:#FAE16E;" d="M262.68,144.913c-0.001-10.432,12.629-29.216,16.237-29.216
			c4.209,0,16.238,18.784,16.238,29.215c-0.001,10.432-7.271,18.888-16.238,18.888C269.95,163.8,262.68,155.344,262.68,144.913z"/>
		<g id="XMLID_37_">
			<g id="XMLID_782_">
				<g id="XMLID_41_">
					<path id="XMLID_784_" style="fill:#FAE16E;" d="M218.045,201.545c-0.001-10.432,12.629-29.216,16.237-29.216
						c4.209,0,16.238,18.784,16.238,29.215c-0.001,10.432-7.271,18.888-16.238,18.888S218.045,211.976,218.045,201.545z"/>
				</g>
				<path id="XMLID_40_" style="fill:#FCE98E;" d="M128.777,201.545c0-10.433,12.629-29.216,16.237-29.216
					c4.21-0.001,16.236,18.784,16.237,29.216c0,10.431-7.27,18.887-16.237,18.887S128.777,211.976,128.777,201.545z"/>
			</g>
		</g>
		<g id="XMLID_32_">
			<path id="XMLID_36_" style="fill:#FCE98E;" d="M173.412,144.913c0-10.433,12.629-29.216,16.237-29.216
				c4.21-0.001,16.236,18.784,16.237,29.216c0,10.431-7.27,18.887-16.237,18.887C180.681,163.8,173.411,155.344,173.412,144.913z"/>
			<path id="XMLID_33_" style="fill:#FAE16E;" d="M189.649,115.697V163.8c8.968,0,16.237-8.456,16.237-18.887
				C205.885,134.481,193.859,115.696,189.649,115.697z"/>
		</g>
	</g>
</g>
<g>
</g>
<g>
</g>
<g>
</g>
<g>
</g>
<g>
</g>
<g>
</g>
<g>
</g>
<g>
</g>
<g>
</g>
<g>
</g>
<g>
</g>
<g>
</g>
<g>
</g>
<g>
</g>
<g>
</g>
</svg>
